<svg width="131" height="28" viewBox="0 0 131 28" fill="none" xmlns="http://www.w3.org/2000/svg">
<path d="M9.504 24.768C9.984 24.768 10.476 24.732 10.98 24.66C11.484 24.588 11.892 24.492 12.204 24.372V26.784C11.868 26.952 11.388 27.084 10.764 27.18C10.14 27.3 9.54 27.36 8.964 27.36C7.956 27.36 7.02 27.192 6.156 26.856C5.316 26.496 4.632 25.884 4.104 25.02C3.576 24.156 3.312 22.944 3.312 21.384V10.152H0.576V8.64L3.348 7.38L4.608 3.276H6.48V7.704H12.06V10.152H6.48V21.312C6.48 22.488 6.756 23.364 7.308 23.94C7.884 24.492 8.616 24.768 9.504 24.768ZM23.5198 7.344C25.1518 7.344 26.5678 7.704 27.7678 8.424C28.9678 9.144 29.8798 10.164 30.5038 11.484C31.1518 12.78 31.4758 14.304 31.4758 16.056V17.964H18.2638C18.3118 20.148 18.8638 21.816 19.9198 22.968C20.9998 24.096 22.4998 24.66 24.4198 24.66C25.6438 24.66 26.7238 24.552 27.6598 24.336C28.6198 24.096 29.6038 23.76 30.6118 23.328V26.1C29.6278 26.532 28.6558 26.844 27.6958 27.036C26.7358 27.252 25.5958 27.36 24.2758 27.36C22.4278 27.36 20.8078 26.988 19.4158 26.244C18.0238 25.5 16.9318 24.396 16.1398 22.932C15.3718 21.468 14.9878 19.656 14.9878 17.496C14.9878 15.384 15.3358 13.572 16.0318 12.06C16.7518 10.548 17.7478 9.384 19.0198 8.568C20.3158 7.752 21.8158 7.344 23.5198 7.344ZM23.4838 9.936C21.9718 9.936 20.7718 10.428 19.8838 11.412C19.0198 12.372 18.5038 13.716 18.3358 15.444H28.1638C28.1398 13.812 27.7558 12.492 27.0118 11.484C26.2678 10.452 25.0918 9.936 23.4838 9.936ZM48.9521 21.672C48.9521 23.544 48.2561 24.96 46.8641 25.92C45.4721 26.88 43.6001 27.36 41.2481 27.36C39.9041 27.36 38.7401 27.252 37.7561 27.036C36.7961 26.82 35.9441 26.52 35.2001 26.136V23.256C35.9681 23.64 36.8921 24 37.9721 24.336C39.0761 24.648 40.1921 24.804 41.3201 24.804C42.9281 24.804 44.0921 24.552 44.8121 24.048C45.5321 23.52 45.8921 22.824 45.8921 21.96C45.8921 21.48 45.7601 21.048 45.4961 20.664C45.2321 20.28 44.7521 19.896 44.0561 19.512C43.3841 19.128 42.4121 18.696 41.1401 18.216C39.8921 17.736 38.8241 17.256 37.9361 16.776C37.0481 16.296 36.3641 15.72 35.8841 15.048C35.4041 14.376 35.1641 13.512 35.1641 12.456C35.1641 10.824 35.8241 9.564 37.1441 8.676C38.4881 7.788 40.2401 7.344 42.4001 7.344C43.5761 7.344 44.6681 7.464 45.6761 7.704C46.7081 7.944 47.6681 8.256 48.5561 8.64L47.4761 11.16C46.6601 10.824 45.8081 10.536 44.9201 10.296C44.0321 10.056 43.1201 9.936 42.1841 9.936C40.8881 9.936 39.8921 10.152 39.1961 10.584C38.5241 10.992 38.1881 11.556 38.1881 12.276C38.1881 12.828 38.3441 13.284 38.6561 13.644C38.9681 14.004 39.4841 14.364 40.2041 14.724C40.9481 15.084 41.9321 15.492 43.1561 15.948C44.3801 16.404 45.4241 16.872 46.2881 17.352C47.1521 17.832 47.8121 18.42 48.2681 19.116C48.7241 19.788 48.9521 20.64 48.9521 21.672ZM60.0587 24.768C60.5387 24.768 61.0307 24.732 61.5347 24.66C62.0387 24.588 62.4467 24.492 62.7587 24.372V26.784C62.4227 26.952 61.9427 27.084 61.3187 27.18C60.6947 27.3 60.0947 27.36 59.5187 27.36C58.5107 27.36 57.5747 27.192 56.7107 26.856C55.8707 26.496 55.1867 25.884 54.6587 25.02C54.1307 24.156 53.8667 22.944 53.8667 21.384V10.152H51.1307V8.64L53.9027 7.38L55.1627 3.276H57.0347V7.704H62.6147V10.152H57.0347V21.312C57.0347 22.488 57.3107 23.364 57.8627 23.94C58.4387 24.492 59.1707 24.768 60.0587 24.768ZM66.1545 25.056C66.1545 24.168 66.3705 23.544 66.8025 23.184C67.2345 22.824 67.7505 22.644 68.3505 22.644C68.9505 22.644 69.4785 22.824 69.9345 23.184C70.3905 23.544 70.6185 24.168 70.6185 25.056C70.6185 25.92 70.3905 26.544 69.9345 26.928C69.4785 27.312 68.9505 27.504 68.3505 27.504C67.7505 27.504 67.2345 27.312 66.8025 26.928C66.3705 26.544 66.1545 25.92 66.1545 25.056ZM87.2269 0.467998C87.7069 0.467998 88.1269 0.635998 88.4869 0.971998C88.8709 1.284 89.0629 1.788 89.0629 2.484C89.0629 3.18 88.8709 3.696 88.4869 4.032C88.1269 4.344 87.7069 4.5 87.2269 4.5C86.6989 4.5 86.2549 4.344 85.8949 4.032C85.5349 3.696 85.3549 3.18 85.3549 2.484C85.3549 1.788 85.5349 1.284 85.8949 0.971998C86.2549 0.635998 86.6989 0.467998 87.2269 0.467998ZM88.7749 7.704V27H85.6069V7.704H88.7749ZM104.176 7.344C106.48 7.344 108.22 7.908 109.396 9.036C110.572 10.164 111.16 11.964 111.16 14.436V27H108.028V14.652C108.028 11.556 106.588 10.008 103.708 10.008C101.572 10.008 100.096 10.608 99.2801 11.808C98.4641 13.008 98.0561 14.736 98.0561 16.992V27H94.8881V7.704H97.4441L97.9121 10.332H98.0921C98.7161 9.324 99.5801 8.58 100.684 8.1C101.788 7.596 102.952 7.344 104.176 7.344ZM124.882 27.36C123.154 27.36 121.63 27.012 120.31 26.316C118.99 25.62 117.946 24.54 117.178 23.076C116.434 21.612 116.062 19.74 116.062 17.46C116.062 15.084 116.446 13.152 117.214 11.664C118.006 10.176 119.086 9.084 120.454 8.388C121.822 7.692 123.37 7.344 125.098 7.344C126.058 7.344 126.994 7.452 127.906 7.668C128.842 7.86 129.598 8.1 130.174 8.388L129.202 11.016C128.626 10.8 127.954 10.596 127.186 10.404C126.418 10.212 125.698 10.116 125.026 10.116C121.234 10.116 119.338 12.552 119.338 17.424C119.338 19.752 119.794 21.54 120.706 22.788C121.642 24.012 123.022 24.624 124.846 24.624C125.878 24.624 126.802 24.516 127.618 24.3C128.434 24.084 129.178 23.82 129.85 23.508V26.316C129.202 26.652 128.482 26.904 127.69 27.072C126.922 27.264 125.986 27.36 124.882 27.36Z" fill="black"/>
</svg>
